<?xml version="1.0" encoding="UTF-8" standalone="no"?>

<svg
   width="380" height="110"
   viewBox="0 0 950 275"
   xmlns="http://www.w3.org/2000/svg">
  <style>
    svg { background-color:white; }
    .ball-text {
      font-size:50px; color:black; text-anchor:middle;
      fill:white;
    }
    .index-text {
      font-size:50px; stroke:black; text-anchor:middle;
      fill:black; stroke-width:0;
    }
    .indexed-box {
      stroke:black; fill:none;
      stroke-width:5;
    }
    rect { storoke-width:5; stroke:black; fill:none; }
    .box { stroke-width:5; stroke:black; fill:none; }
  </style>
  <g transform="translate(50, 50)">
    <g transform="translate(0, 75)">
      <rect class="indexed-box" x="-25" y="-100" width="150" height="75" />
      <text class="index-text" x="50" y="-45">0</text>
      <rect class="box" x="-25" y="-25" width="150" height="150" />
      <circle cx="50" cy="50" r="50" style="fill:#000000;" />
      <text class="ball-text" x="50" y="70">0</text>
    </g>
    <g transform="translate(150, 75)">
      <rect class="indexed-box" x="-25" y="-100" width="150" height="75" />
      <text class="index-text" x="50" y="-45">1</text>
      <rect class="box" x="-25" y="-25" width="150" height="150" />
      <circle cx="50" cy="50" r="50" style="fill:#000000;" />
      <text class="ball-text" x="50" y="70">1</text>
    </g>
    <g transform="translate(300, 75)">
      <rect class="indexed-box" x="-25" y="-100" width="150" height="75" />
      <text class="index-text" x="50" y="-45">2</text>
      <rect class="box" x="-25" y="-25" width="150" height="150" />
      <circle cx="50" cy="50" r="50" style="fill:#000000;" />
      <text class="ball-text" x="50" y="70">2</text>
    </g>
    <g transform="translate(450, 75)">
      <rect class="indexed-box" x="-25" y="-100" width="150" height="75" />
      <text class="index-text" x="50" y="-45">3</text>
      <rect class="box" x="-25" y="-25" width="150" height="150" />
      <circle cx="50" cy="50" r="50" style="fill:#000000;" />
      <text class="ball-text" x="50" y="70">3</text>
    </g>
    <g transform="translate(600, 75)">
      <rect class="indexed-box" x="-25" y="-100" width="150" height="75" />
      <text class="index-text" x="50" y="-45">4</text>
      <rect class="box" x="-25" y="-25" width="150" height="150" />
      <circle cx="50" cy="50" r="50" style="fill:#000000;" />
      <text class="ball-text" x="50" y="70">4</text>
    </g>
    <g transform="translate(750, 75)">
      <rect class="indexed-box" x="-25" y="-100" width="150" height="75" />
      <text class="index-text" x="50" y="-45">5</text>
      <rect class="box" x="-25" y="-25" width="150" height="150" />
      <circle cx="50" cy="50" r="50" style="fill:#000000;" />
      <text class="ball-text" x="50" y="70">5</text>
    </g>
  </g>
  <!--
  <line x1="0" y1="200" x2="900" y2="200" stroke="black" stroke-width="5" />
  -->
</svg>
