<?xml version="1.0" encoding="UTF-8" standalone="no"?>

<svg
   width="380" height="160"
   viewBox="0 0 950 400"
   xmlns="http://www.w3.org/2000/svg">
  <style>
    svg { background-color:white; }
    circle { fill:black; }
    .ball-text {
      font-size:50px; color:black; text-anchor:middle;
      fill:white;
    }
    .index-text {
      font-size:50px; stroke:black; text-anchor:middle;
      fill:black; stroke-width:0;
    }
    .indexed-box {
      stroke:black; fill:none;
      stroke-width:5;
    }
    .selected > .indexed-box { fill:#55c500; }
    rect { storoke-width:5; stroke:black; fill:none; }
    .box { stroke-width:5; stroke:black; fill:none; }
    .placeholder {
      stroke:gray; stroke-width:5; stroke-dasharray:10,10;
      fill:none;
    }
    .arrow > line { stroke:black; stroke-width:5; }
    .arrow > path { stroke:black; stroke-width:5; }
    .arrow > path.curve { fill:none; }
  </style>
  <g transform="translate(50, 50)">
    <!-- 0 -->
    <g transform="translate(0, 75)">
      <rect class="indexed-box" x="-25" y="-100" width="150" height="75" />
      <text class="index-text" x="50" y="-45">0</text>
      <rect class="box" x="-25" y="-25" width="150" height="150" />
      <circle cx="50" cy="50" r="50"/>
      <text class="ball-text" x="50" y="70">2</text>
    </g>
    <g class="arrow" transform="translate(0, 225)">
      <path class="head" d="M 35,50 50,0 65,50 Z" />
      <line x1="50" y1="50" x2="50" y2="75" /><!--longitudinal-->
      <path class="curve" d="M 50,75 C 50,100 75,100 75,100" />
      <line x1="75" y1="100" x2="325" y2="100" /><!--lateral-->
    </g>
    <!-- 1 -->
    <g transform="translate(150, 75)">
      <rect class="indexed-box" x="-25" y="-100" width="150" height="75" />
      <text class="index-text" x="50" y="-45">1</text>
      <rect class="box" x="-25" y="-25" width="150" height="150" />
      <circle cx="50" cy="50" r="50" />
      <text class="ball-text" x="50" y="70">1</text>
    </g>
    <!-- 2 -->
    <g class="selected" transform="translate(300, 75)">
      <rect class="indexed-box" x="-25" y="-100" width="150" height="75" />
      <text class="index-text" x="50" y="-45">2</text>
      <rect class="box" x="-25" y="-25" width="150" height="150" />
      <circle cx="50" cy="50" r="50" />
      <text class="ball-text" x="50" y="70">5</text>
    </g>
    <!-- 3 -->
    <g class="arrow" transform="translate(300, 225)">
      <path class="head" d="M 35,50 50,0 65,50 Z" />
      <line x1="50" y1="0" x2="50" y2="75" />
      <path class="curve" d="M 50,75 C 50,100 25,100 25,100" />
    </g>
    <g class="selected" transform="translate(450, 75)">
      <rect class="indexed-box" x="-25" y="-100" width="150" height="75" />
      <text class="index-text" x="50" y="-45">3</text>
      <rect class="box" x="-25" y="-25" width="150" height="150" />
      <circle cx="50" cy="50" r="50" />
      <text class="ball-text" x="50" y="70">0</text>
    </g>
    <!-- 4 -->
    <g class="selected" transform="translate(600, 75)">
      <rect class="indexed-box" x="-25" y="-100" width="150" height="75" />
      <text class="index-text" x="50" y="-45">4</text>
      <rect class="box" x="-25" y="-25" width="150" height="150" />
      <circle cx="50" cy="50" r="50" />
      <text class="ball-text" x="50" y="70">4</text>
    </g>
    <!-- 5 -->
    <g class="selected" transform="translate(750, 75)">
      <rect class="indexed-box" x="-25" y="-100" width="150" height="75" />
      <text class="index-text" x="50" y="-45">5</text>
      <rect class="box" x="-25" y="-25" width="150" height="150" />
      <circle cx="50" cy="50" r="50" />
      <text class="ball-text" x="50" y="70">3</text>
    </g>
  </g>
</svg>
